<svg width="43" height="37" viewBox="0 0 43 37" fill="none" xmlns="http://www.w3.org/2000/svg">
<path d="M14.3333 35.4584C16.3124 35.4584 17.9167 34.078 17.9167 32.3751C17.9167 30.6722 16.3124 29.2917 14.3333 29.2917C12.3543 29.2917 10.75 30.6722 10.75 32.3751C10.75 34.078 12.3543 35.4584 14.3333 35.4584Z" stroke="white" stroke-width="1.8" stroke-linecap="round" stroke-linejoin="round"/>
<path d="M35.8333 35.4584C37.8124 35.4584 39.4167 34.078 39.4167 32.3751C39.4167 30.6722 37.8124 29.2917 35.8333 29.2917C33.8543 29.2917 32.25 30.6722 32.25 32.3751C32.25 34.078 33.8543 35.4584 35.8333 35.4584Z" stroke="white" stroke-width="1.8" stroke-linecap="round" stroke-linejoin="round"/>
<path d="M10.1588 9.25008H41.2084L38.1983 22.1847C38.0345 22.8944 37.5858 23.532 36.9307 23.9858C36.2756 24.4396 35.4559 24.6806 34.615 24.6667H15.6771C14.8022 24.6731 13.9548 24.4039 13.2947 23.9097C12.6347 23.4156 12.2075 22.7307 12.0938 21.9842L9.37044 4.22425C9.2575 3.48307 8.83549 2.80244 8.18292 2.30899C7.53035 1.81554 6.69168 1.54288 5.82294 1.54175H1.79169" stroke="white" stroke-width="1.8" stroke-linecap="round" stroke-linejoin="round"/>
</svg>
